<svg height="479pt" viewBox="0 0 479.43819 479" width="479pt" xmlns="http://www.w3.org/2000/svg"><path d="m478.636719 221.765625c.277343-.75.4375-1.535156.472656-2.335937 0-.84375-.136719-1.683594-.398437-2.484376l-.617188-1.746093c-6.53125-63.125-37.867188-121.070313-87.121094-161.085938-3.519531-2.867187-7.199218-5.457031-10.878906-8.113281-.183594-.152344-.28125-.367188-.480469-.511719s-.359375-.128906-.527343-.234375c-40.722657-29.191406-89.542969-44.929687-139.648438-45.023437-2.0625 0-4.136719 0-5.679688.160156-26.726562.519531-53.164062 5.605469-78.175781 15.039063-21.683593-16.914063-51.117187-19.980469-75.824219-7.898438-24.707031 12.082031-40.359374 37.199219-40.320312 64.699219.480469 9.148437 2.605469 18.132812 6.28125 26.519531-8.164062 11.160156-15.351562 23-21.480469 35.394531-.121093.191407-.191406.398438-.296875.597657-56.71875 117.277343-9.523437 258.390624 106.339844 317.945312 115.859375 59.558594 258.078125 15.8125 320.4375-98.566406 17.078125-31.464844 26.785156-66.398438 28.382812-102.160156.25-3.859376.335938-7.792969.335938-11.730469 0-6.199219-.320312-12.34375-.800781-18.464844zm-23.246094-41.054687c-1.015625-.902344-1.953125-1.945313-3.015625-2.777344-10.453125-7.9375-22.300781-13.855469-34.929688-17.445313-11.5-2.886719-23.519531-3.011719-35.078124-.367187-9.832032 2.226562-20.027344 2.277344-29.882813.148437-19.125-4.175781-34.238281-7.46875-42.253906-20.269531-11.480469-18.402344-6.097657-44.265625 6.015625-53.367188 3.992187-2.753906 8.917968-3.804687 13.6875-2.921874 8.484375.695312 17.011718-.742188 24.800781-4.175782 8.289063-3.882812 15.652344-9.488281 21.601563-16.449218 1.511718 1.167968 3.109374 2.21875 4.589843 3.425781 36.101563 29.390625 62.128907 69.3125 74.464844 114.199219zm-343.953125-164.480469c30.910156.050781 55.953125 25.09375 56 56 0 23.929687-35.941406 78.714843-56 106.488281-19.019531-25.703125-35.546875-53.164062-49.351562-82.007812-3.761719-7.660157-6.019532-15.96875-6.648438-24.480469.035156-30.914063 25.085938-55.964844 56-56zm-96 224c.03125-14.90625 1.535156-29.777344 4.488281-44.390625.855469 11.121094 2.304688 21.015625 3.601563 29.597656 4.957031 32.800781 9.640625 63.722656 33.816406 92 10.109375 11.914062 27.039062 31.832031 53.214844 34.777344 26.175781 2.945312 58.953125-12.113282 68.421875-16.800782l3.632812-1.832031c5.03125-3.167969 10.78125-5.007812 16.714844-5.351562 10.121094.917969 19.496094 5.707031 26.175781 13.367187 13.652344 15.113282 17.117188 40.347656 7.414063 54-3.109375 4.054688-7.402344 7.039063-12.289063 8.539063-8.363281 2.796875-15.472656 8.464843-20.0625 16-6.761718 12.242187-8.019531 26.777343-3.457031 40-105.359375-20.414063-181.507813-112.585938-181.671875-219.90625zm224 224c-7.730469 0-15.453125-.398438-23.144531-1.191407-.65625-.839843-1.265625-1.714843-1.824219-2.625-5.40625-10-5.464844-22.042968-.152344-32.09375 2.886719-4.585937 7.359375-7.949218 12.5625-9.449218 7.628906-2.628906 14.285156-7.515625 19.078125-14.007813 13.914063-19.566406 9.976563-53.464843-8.558593-73.96875-9.640626-11.023437-23.28125-17.742187-37.894532-18.664062h-.355468c-8.425782.253906-16.636719 2.699219-23.832032 7.097656l-3.414062 1.726563c-17.480469 8.617187-42.351563 17.136718-59.566406 15.199218-19.867188-2.222656-33.664063-18.480468-42.816407-29.246094-21.21875-24.800781-25.371093-52.242187-30.167969-84-5.148437-27.167968-5.351562-55.039062-.609374-82.28125 4.285156-8.675781 9.125-17.066406 14.496093-25.121093.265625.53125.558594 1.074219.800781 1.601562.511719 1.015625 1.039063 2.023438 1.597657 3.039063.800781 1.511718 1.601562 3.023437 2.402343 4.546875.550782 1.023437 1.109376 2.046875 1.679688 3.078125.847656 1.519531 1.703125 3.039062 2.566406 4.558594.578125 1.007812 1.152344 2.019531 1.738282 3.027343.890624 1.519531 1.78125 3.03125 2.679687 4.542969.589844.992188 1.175781 1.976562 1.773437 2.960938.945313 1.597656 1.898438 3.09375 2.851563 4.636718.542969.875 1.078125 1.761719 1.597656 2.625 1.183594 1.898438 2.359375 3.738282 3.535157 5.601563.3125.480469.625.984375.929687 1.457031 1.464844 2.269531 2.917969 4.484375 4.34375 6.644531.542969.800781 1.070313 1.601563 1.601563 2.402344.878906 1.320313 1.757812 2.640625 2.613281 3.902344l1.898437 2.777343c.6875 1.015626 1.382813 2.03125 2.054688 3l1.917968 2.757813c.59375.859375 1.1875 1.699219 1.753907 2.503906.566406.808594 1.207031 1.722657 1.800781 2.546875.589844.824219.992188 1.398438 1.464844 2.0625l1.597656 2.207032 1.304688 1.808593 1.273437 1.753907 1.039063 1.40625.976562 1.328124.582031.800782c.714844.96875 1.257813 1.695312 1.410157 1.894531 1.507812 2.015625 3.878906 3.203125 6.398437 3.203125s4.890625-1.1875 6.398437-3.203125c6.714844-8.902344 65.617188-87.871094 65.617188-124.847656 0-2.335938-.144531-4.65625-.367188-6.960938-.070312-.710937-.183593-1.421875-.273437-2.132812-.207031-1.601563-.453125-3.203125-.796875-4.800781-.152344-.800782-.320312-1.550782-.496094-2.320313-.371094-1.601563-.800781-3.199219-1.289062-4.800781-.199219-.640625-.367188-1.289063-.578125-1.917969-.71875-2.144531-1.527344-4.265625-2.445313-6.328125-.175781-.394531-.386718-.800781-.570312-1.160156-.800782-1.664063-1.597656-3.3125-2.519532-4.921875-.398437-.71875-.839843-1.414063-1.269531-2.121094-.769531-1.261719-1.570312-2.503906-2.402343-3.726563-.496094-.710937-1-1.421874-1.519532-2.121093-.273437-.351563-.503906-.726563-.800781-1.070313 16.644531-5.605468 33.90625-9.183594 51.410156-10.65625-12.472656 23.542969-16.546875 45.320313-11.890625 64.800782 3.472656 13.046874 10.0625 25.058593 19.203125 35 7.527344 9.320312 12.941407 16.039062 12.605469 27.007812-.6875 23.199219-26.886719 42.511719-36.800781 49.808594-13.003907 9.363281-27.539063 16.382812-42.957031 20.75-14.53125 4.746094-27.066407 8.839844-31.859376 23.144531-4.738281 18.890625 3.042969 38.710937 19.371094 49.328125 9.785156 5.285156 21.316406 6.304688 31.878906 2.816406 11.570313-2.6875 23.53125-3.261718 35.304688-1.6875 15.199219 2.152344 28.304688 4 34.519531 12.703125 3.6875 5.199219 3.496094 10.574219 2.777344 20.433594-1.640625 13.957031-.222656 28.105469 4.148437 41.460937 3.648438 10.945313 9.160157 27.472657 22.402344 29.378907.859375.136719 1.730469.207031 2.597656.207031 9.371094 0 15.105469-8.273438 21.136719-16.976562 2.664063-3.847657 5.601563-8 9.121094-12.167969 16.464844 26.601562 33.191406 48.800781 33.96875 49.855469 1.511719 2.015624 3.882813 3.199218 6.398437 3.199218 2.519532 0 4.890626-1.183594 6.402344-3.199218 17.355469-23.242188 33.175782-47.601563 47.351563-72.910157 9.828125 2.847657 19.1875 7.113281 27.78125 12.664063-40.027344 69-113.773438 111.457031-193.542969 111.421875zm149.320312-217.703125c11.886719 10.601562 18.683594 25.773437 18.679688 41.703125 0 5.753906-2.335938 17.160156-13.429688 38.824219-12.664062 23.472656-26.882812 46.066406-42.570312 67.632812-7.527344-10.488281-20.480469-29.105469-32.070312-48.671875-6.460938-10.726563-12.230469-21.847656-17.28125-33.304687-3.761719-7.660157-6.019532-15.96875-6.648438-24.480469.035156-30.914063 25.085938-55.964844 56-56 1.730469 0 3.445312.078125 5.152344.234375 11.960937 1.082031 23.25 6.019531 32.167968 14.0625zm74.398438 4.609375c-1.378906 30.429687-9.046875 60.242187-22.527344 87.558593-8.765625-5.542968-18.210937-9.941406-28.09375-13.089843 6.179688-11.566407 9.894532-24.296875 10.902344-37.375-.066406-27.453125-15.675781-52.5-40.296875-64.65625l-.503906-.222657c-1.789063-.863281-3.605469-1.671874-5.460938-2.398437-1.273437-.496094-2.59375-.882813-3.898437-1.296875-.800782-.242188-1.519532-.542969-2.296875-.800781-2.0625-.585938-4.160157-1.0625-6.269531-1.457031h-.105469c-1.277344-.238282-2.574219-.367188-3.871094-.535157-20.570313-2.847656-41.363281 3.390625-56.96875 17.089844-15.609375 13.703125-24.488281 33.511719-24.328125 54.277344.621094 10.664062 3.3125 21.109375 7.921875 30.746093 4.484375 10.210938 9.542969 20.160157 15.152344 29.796876-5 5.472656-9.578125 11.3125-13.699219 17.472656-2.199219 3.769531-4.976562 7.167968-8.230469 10.074218-1.601562-.242187-4.566406-3.65625-9.601562-18.625-3.671875-11.363281-4.824219-23.394531-3.367188-35.246093 2.078125-10.644531.035157-21.679688-5.710937-30.875-10.214844-14.285157-28.046875-16.800781-45.398438-19.261719-13.488281-1.84375-27.199218-1.226562-40.464844 1.816406-10.234374 1.957032-14.984374 2.6875-20.417968-.699218-9.925782-6.804688-14.886719-18.839844-12.640625-30.664063 2.136719-6.398437 8.539062-8.710937 21.601562-13 17.058594-4.894531 33.136719-12.707031 47.527344-23.09375 11.65625-8.550781 42.402344-31.242187 43.328125-62.199219.511719-16.9375-7.960938-27.386718-16.152344-37.488281-7.570312-8.109375-13.078125-17.917969-16.0625-28.601563-4.25-17.824218 1.015625-38.726562 15.296875-62.152343h.917969c44.042969.0625 87.097656 13.078125 123.800781 37.425781-4.238281 4.722656-9.367187 8.558594-15.097656 11.289062-5.578125 2.414063-11.675781 3.367188-17.726563 2.773438-8.414062-1.039062-16.90625 1.144531-23.777343 6.113281-18.140625 13.65625-26.269531 48.480469-9.964844 74.632813 11.605469 18.535156 31.429687 22.855468 53.078125 27.574218 11.652344 2.460938 23.695312 2.410157 35.328125-.152343 9.335937-2.226563 19.070313-2.199219 28.390625.089843 10.488281 3.023438 20.332031 7.953126 29.042969 14.535157 9.046875 7.503906 15.90625 17.300781 19.863281 28.367187.65625 7.066406 1.0625 14.152344 1.0625 21.351563 0 3.578125-.070312 7.199219-.3125 10.90625zm0 0"/><path d="m111.4375 96.230469c17.671875 0 32-14.324219 32-32 0-17.671875-14.328125-32-32-32s-32 14.328125-32 32c0 17.675781 14.328125 32 32 32zm0-48c8.835938 0 16 7.164062 16 16 0 8.835937-7.164062 16-16 16s-16-7.164063-16-16c0-8.835938 7.164062-16 16-16zm0 0"/><path d="m319.4375 280.230469c0 17.675781 14.328125 32 32 32s32-14.324219 32-32c0-17.671875-14.328125-32-32-32s-32 14.328125-32 32zm48 0c0 8.835937-7.164062 16-16 16s-16-7.164063-16-16c0-8.835938 7.164062-16 16-16s16 7.164062 16 16zm0 0"/></svg>